<!DOCTYPE svg PUBLIC "-//W3C//DTD SVG 1.1//EN" "http://www.w3.org/Graphics/SVG/1.1/DTD/svg11.dtd">
<!-- Uploaded to: SVG Repo, www.svgrepo.com, Transformed by: SVG Repo Mixer Tools -->
<svg fill="#ff0000" width="800px" height="800px" viewBox="-3.2 -3.2 38.40 38.40" version="1.1" xmlns="http://www.w3.org/2000/svg" stroke="#ff0000" stroke-width="0.00032" transform="matrix(1, 0, 0, 1, 0, 0)rotate(0)">

<g id="SVGRepo_bgCarrier" stroke-width="0" transform="translate(0,0), scale(1)">

<rect width="38.40" height="38.40" rx="19.2" fill="#000000" strokewidth="0" x="-4.2" y="-4.2" transform="translate(1,1)"/>

</g>

<g id="SVGRepo_tracerCarrier" stroke-linecap="round" stroke-linejoin="round" stroke="#ffffff" stroke-width="1.28"> <title>search</title> <path d="M16.906 20.188l5.5 5.5-2.25 2.281-5.75-5.781c-1.406 0.781-3.031 1.219-4.719 1.219-5.344 0-9.688-4.344-9.688-9.688s4.344-9.688 9.688-9.688 9.719 4.344 9.719 9.688c0 2.5-0.969 4.781-2.5 6.469zM3.219 13.719c0 3.594 2.875 6.469 6.469 6.469s6.469-2.875 6.469-6.469-2.875-6.469-6.469-6.469-6.469 2.875-6.469 6.469z" transform="translate(6, 1)"/> </g>

<g id="SVGRepo_iconCarrier"> <title>search</title> <path d="M16.906 20.188l5.5 5.5-2.25 2.281-5.75-5.781c-1.406 0.781-3.031 1.219-4.719 1.219-5.344 0-9.688-4.344-9.688-9.688s4.344-9.688 9.688-9.688 9.719 4.344 9.719 9.688c0 2.5-0.969 4.781-2.5 6.469zM3.219 13.719c0 3.594 2.875 6.469 6.469 6.469s6.469-2.875 6.469-6.469-2.875-6.469-6.469-6.469-6.469 2.875-6.469 6.469z" transform="translate(6, 1)"/> </g>

</svg>